<?xml version="1.0" encoding="UTF-8" standalone="no"?>
<!-- Created with Inkscape (http://www.inkscape.org/) -->

<svg
   width="76.372993mm"
   height="12.32542mm"
   viewBox="0 0 76.372993 12.32542"
   version="1.1"
   id="svg19771"
   inkscape:version="1.1 (c68e22c387, 2021-05-23)"
   sodipodi:docname="graphic-bars-blip-to-battery-with-top.svg"
   xmlns:inkscape="http://www.inkscape.org/namespaces/inkscape"
   xmlns:sodipodi="http://sodipodi.sourceforge.net/DTD/sodipodi-0.dtd"
   xmlns="http://www.w3.org/2000/svg"
   xmlns:svg="http://www.w3.org/2000/svg">
  <sodipodi:namedview
     id="namedview19773"
     pagecolor="#ffffff"
     bordercolor="#666666"
     borderopacity="1.0"
     inkscape:pageshadow="2"
     inkscape:pageopacity="0.0"
     inkscape:pagecheckerboard="0"
     inkscape:document-units="mm"
     showgrid="false"
     inkscape:zoom="4"
     inkscape:cx="143"
     inkscape:cy="3.625"
     inkscape:window-width="1920"
     inkscape:window-height="1017"
     inkscape:window-x="-8"
     inkscape:window-y="-8"
     inkscape:window-maximized="1"
     inkscape:current-layer="layer2"
     inkscape:snap-global="true"
     showguides="true"
     inkscape:guide-bbox="true"
     inkscape:snap-bbox="false"
     inkscape:snap-intersection-paths="true"
     inkscape:object-paths="true"
     inkscape:snap-smooth-nodes="true">
    <sodipodi:guide
       position="27.617941,9.8170488"
       orientation="0,-1"
       id="guide879" />
  </sodipodi:namedview>
  <defs
     id="defs19768" />
  <g
     inkscape:label="Layer 1"
     inkscape:groupmode="layer"
     id="layer1"
     transform="translate(200.07866,-117.29147)">
    <path
       id="path19639"
       style="font-variation-settings:'wght' 700;fill:#17e2f7;fill-opacity:1;stroke-width:2.64583"
       d="M -198.65341,128.02158 H -180.61105 L -173.53339,121.033 V 120.86294 L -172.46072,119.79984 C -172.46072,119.79984 -139.90077,119.79952 -123.79156,119.79952 -123.73365,119.79952 -123.70567,119.84678 -123.70567,119.89687 V 120.20608 H -172.2377 L -180.45718,128.3455 -198.65341,128.3536 Z M -197.22816,128.19164 C -197.22816,128.97878 -197.86627,129.61689 -198.65341,129.61689 -199.44055,129.61689 -200.07866,128.97878 -200.07866,128.19164 -200.07866,127.4045 -199.44055,126.76639 -198.65341,126.76639 -197.86627,126.76639 -197.22816,127.4045 -197.22816,128.19164 Z"
       sodipodi:nodetypes="ccccccccccccsssss" />
  </g>
  <g
     inkscape:groupmode="layer"
     id="layer2"
     inkscape:label="Top"
     style="display:inline">
    <path
       d="M -172.46072,119.79984 -169.92977,117.29147 H -151.85546 V 117.54341 C -151.85546,117.61655 -151.92899,117.69229 -152.00434,117.69229 H -169.77591 L -171.6976,119.623 C -171.77691,119.70232 -171.72025,119.79952 -171.6255,119.79952"
       style="font-variation-settings:'wght' 700;fill:#17e2f7;fill-opacity:0.784314;stroke-width:0.700042"
       id="path1047"
       transform="translate(200.07866,-117.29147)" />
  </g>
</svg>
