<?xml version="1.0" encoding="UTF-8" standalone="no"?>
<!-- Created with Inkscape (http://www.inkscape.org/) -->

<svg
   width="128"
   height="128"
   viewBox="0 0 128 128"
   version="1.1"
   id="svg17682"
   inkscape:version="1.1 (c68e22c387, 2021-05-23)"
   sodipodi:docname="graphic-ring-03.svg"
   xmlns:inkscape="http://www.inkscape.org/namespaces/inkscape"
   xmlns:sodipodi="http://sodipodi.sourceforge.net/DTD/sodipodi-0.dtd"
   xmlns="http://www.w3.org/2000/svg"
   xmlns:svg="http://www.w3.org/2000/svg">
  <sodipodi:namedview
     inkscape:zoom="3.7946874"
     inkscape:cx="47.830027"
     inkscape:cy="65.48629"
     inkscape:window-width="1920"
     inkscape:window-height="1017"
     inkscape:window-x="-8"
     inkscape:window-y="-8"
     inkscape:window-maximized="1"
     inkscape:current-layer="layer3"
     id="namedview5357"
     pagecolor="#ffffff"
     bordercolor="#666666"
     borderopacity="1.0"
     inkscape:pageshadow="2"
     inkscape:pageopacity="0.0"
     inkscape:pagecheckerboard="0" />
  <defs
     id="defs5359" />
  <g
     inkscape:groupmode="layer"
     id="layer7"
     inkscape:label="Base">
    <circle
       style="font-variation-settings:'wght' 700;fill:none;stroke:#14b2c9;stroke-width:2;stroke-miterlimit:4;stroke-dasharray:none;stroke-opacity:1"
       id="circle3172"
       cx="64"
       cy="64"
       r="61.5" />
  </g>
  <g
     inkscape:groupmode="layer"
     id="layer5"
     inkscape:label="Inner"
     style="display:none">
    <path
       id="ellipse56251"
       style="color:#000000;fill:#14b2c9;fill-opacity:1;stroke-width:1.33333;stroke-dasharray:2.76581, 2.76581;-inkscape-stroke:none"
       d="M 64.203825,4.8344579e-4 C 63.652434,-0.0017782 63.10097,0.00393831 62.549732,0.0167324 L 62.695901,6.2889637 C 63.190047,6.2774961 63.68442,6.272159 64.178719,6.2741955 Z M 65.846042,0.02559583 65.673264,6.2978158 C 66.167336,6.3113409 66.661256,6.331296 67.154573,6.3583677 L 67.4987,0.09352929 C 66.947916,0.06329871 66.397359,0.0406873 65.846042,0.02559583 Z M 60.908955,0.07285571 C 60.357718,0.09853407 59.807688,0.13247075 59.257812,0.17327971 L 59.721486,6.4307292 C 60.214424,6.3941628 60.707964,6.3636402 61.201361,6.3406414 Z M 69.138048,0.20282012 68.646238,6.4587872 C 69.138195,6.4973901 69.629925,6.5424019 70.121576,6.5946586 L 70.784728,0.35641787 C 70.236587,0.29815994 69.688525,0.2460104 69.138048,0.20282012 Z M 57.621413,0.31359225 C 57.071463,0.36745675 56.522492,0.42946614 55.976171,0.49818392 L 56.760382,6.7231565 C 57.251579,6.661362 57.742096,6.6058257 58.232844,6.5577486 Z M 72.416664,0.54840471 71.605834,6.7704192 C 72.094388,6.834143 72.584076,6.9055404 73.073833,6.9830898 L 74.054491,0.7861747 C 73.5115,0.7002019 72.965026,0.6199303 72.416664,0.54840471 Z M 54.348694,0.72414375 C 53.801919,0.80640819 53.25726,0.89521032 52.716758,0.99145015 L 53.816965,7.1691605 C 54.305973,7.0820944 54.794754,7.0017587 55.28202,6.9284325 Z M 75.67758,1.0638338 74.541837,7.234149 C 75.027891,7.3235511 75.513876,7.4194694 75.999555,7.5221392 L 77.297719,1.3842969 C 76.760319,1.270717 76.22005,1.1636101 75.67758,1.0638338 Z M 51.096624,1.3016037 C 50.559525,1.4116681 50.020912,1.5292564 49.482383,1.6545608 L 50.904633,7.7643462 C 51.384567,7.652631 51.869111,7.5481391 52.356378,7.4482771 Z M 78.905989,1.7461282 77.4513,7.8485184 C 77.934104,7.9635774 78.414412,8.0847022 78.889729,8.2118288 L 80.509869,2.1507851 C 79.975117,2.0077975 79.440366,1.8734691 78.905989,1.7461282 Z M 47.885909,2.0474076 C 47.352513,2.1853796 46.819049,2.3298678 46.287927,2.4830799 L 48.027689,8.5116291 C 48.501265,8.3750073 48.976815,8.2441514 49.455836,8.1202614 Z M 82.091597,2.5938521 80.328244,8.6150066 C 80.800993,8.7535577 81.271926,8.8998034 81.743087,9.0521575 L 83.673315,3.0812237 C 83.149537,2.911829 82.622345,2.7494001 82.091597,2.5938521 Z M 44.715046,2.9571624 C 44.186646,3.1233421 43.663764,3.2968093 43.145193,3.4755495 L 45.189155,9.4080732 C 45.659108,9.2461162 46.127467,9.0903963 46.596586,8.9428644 Z M 85.2344,3.6084629 83.154981,9.5276974 C 83.622512,9.6920125 84.087236,9.8609784 84.549096,10.037232 L 86.786565,4.1755702 C 86.27147,3.9789965 85.753352,3.7908252 85.2344,3.6084629 Z M 41.591514,4.0337826 C 41.077938,4.2257688 40.564584,4.4239497 40.051151,4.6319263 L 42.406727,10.447783 C 42.862462,10.263235 43.323188,10.084366 43.789057,9.910213 Z M 88.316567,4.782566 85.93589,10.586613 C 86.393213,10.774184 86.847734,10.968657 87.299012,11.16851 L 89.839241,5.4309084 C 89.334428,5.2073282 88.826745,4.9918067 88.316567,4.782566 Z M 38.535888,5.2669796 C 38.027905,5.486852 37.524605,5.7128115 37.026529,5.9448366 L 39.676026,11.632239 C 40.125783,11.422741 40.5757,11.220745 41.027352,11.025243 Z M 91.335296,6.1146816 88.656309,11.788773 C 89.102517,11.999515 89.546757,12.217673 89.989868,12.441553 L 92.819554,6.8413022 C 92.329338,6.5936299 91.834659,6.3504797 91.335296,6.1146816 Z M 35.540757,6.6611261 C 35.050615,6.9049835 34.560626,7.1558067 34.071318,7.4158041 L 37.014654,12.955504 C 37.448765,12.724871 37.888927,12.499533 38.334981,12.277624 Z M 94.280214,7.6018748 91.311698,13.129763 C 91.747323,13.363739 92.178559,13.603546 92.606919,13.84901 L 95.726062,8.4052941 C 95.247114,8.1308715 94.765746,7.8626651 94.280214,7.6018748 Z M 32.62986,8.2029546 C 32.147281,8.4741837 31.669847,8.751114 31.19876,9.0329527 L 34.419834,14.417597 C 34.846079,14.162572 35.274212,13.914321 35.703253,13.67325 Z M 97.143854,9.2397072 93.891779,14.606625 C 94.315228,14.863257 94.735275,15.124669 95.151538,15.392319 L 98.545392,10.11551 C 98.082092,9.8176169 97.61464,9.5250183 97.143854,9.2397072 Z M 29.795789,9.8969238 C 29.332871,10.190165 28.870254,10.491831 28.410436,10.800763 L 31.909169,16.008167 C 32.317341,15.733959 32.732244,15.463716 33.152668,15.197374 Z M 99.917361,11.022285 96.396547,16.214922 C 96.804945,16.491787 97.21138,16.775191 97.6135,17.064124 L 101.27466,11.96895 C 100.82754,11.647736 100.37453,11.332181 99.917361,11.022285 Z M 27.05911,11.73118 C 26.60655,12.050871 26.161024,12.375385 25.722529,12.702965 L 29.478203,17.730193 C 29.877453,17.431914 30.277461,17.139487 30.678903,16.855891 Z M 102.60088,12.946629 98.811251,17.947279 C 99.208766,18.248537 99.600003,18.552818 99.983827,18.859992 L 103.90343,13.959762 C 103.47084,13.61362 103.03673,13.27691 102.60088,12.946629 Z M 24.415512,13.707223 C 23.983598,14.047299 23.554026,14.393312 23.129217,14.746934 L 27.143345,19.568886 C 27.52218,19.253524 27.907063,18.9438 28.29671,18.63699 Z M 105.17355,15.000951 101.14021,19.806656 C 101.51708,20.122918 101.89184,20.447004 102.26416,20.776941 L 106.42597,16.080529 C 106.01568,15.716961 105.59768,15.356909 105.17355,15.000951 Z M 21.878309,15.813223 C 21.463027,16.17604 21.053722,16.543916 20.649556,16.916442 L 24.901418,21.53014 C 25.266113,21.194008 25.63542,20.862935 26.007599,20.537692 Z M 107.64436,17.189665 103.36589,21.778263 C 103.72937,22.117138 104.08718,22.459358 104.43811,22.804684 L 108.83916,18.332752 C 108.44475,17.9446 108.04573,17.563842 107.64436,17.189665 Z M 19.454754,18.046241 C 19.057998,18.430192 18.667066,18.819545 18.282107,19.212949 L 22.765883,23.600709 C 23.112279,23.246744 23.462756,22.898352 23.817394,22.555083 Z M 109.99556,19.497981 105.49106,23.865057 C 105.83405,24.218829 106.17326,24.579739 106.51013,24.946115 L 111.12979,20.700142 C 110.75889,20.296728 110.38043,19.895051 109.99556,19.497981 Z M 17.143412,20.404778 C 16.771081,20.805106 16.400867,21.212056 16.034284,21.627623 L 20.739614,25.77907 C 21.06476,25.410444 21.39815,25.042654 21.737966,24.677329 Z M 112.22705,21.925945 107.50402,26.056729 C 107.82947,26.428892 108.15031,26.805663 108.46547,27.186528 L 113.29928,23.185699 C 112.94781,22.760937 112.59,22.340954 112.22705,21.925945 Z M 14.96213,22.871131 C 14.605527,23.294885 14.257922,23.722949 13.916518,24.151569 L 18.824119,28.06083 C 19.134219,27.671563 19.446738,27.28819 19.763417,26.911827 Z M 114.33453,24.467617 109.40182,28.345841 C 109.70935,28.736887 110.01143,29.129069 110.30565,29.524381 L 115.33734,25.777591 C 115.00721,25.334095 114.67344,24.898552 114.33453,24.467617 Z M 12.906294,25.452691 C 12.575249,25.890571 12.247304,26.334495 11.925712,26.784807 L 17.031199,30.431178 C 17.317328,30.030572 17.611851,29.632667 17.911439,29.236412 Z M 116.30326,27.10825 111.18294,30.733936 C 111.46756,31.135849 111.74749,31.544043 112.02326,31.95678 L 117.23953,28.469924 C 116.93442,28.013161 116.62296,27.559698 116.30326,27.10825 Z M 10.98785,28.133192 C 10.676844,28.591092 10.373701,29.050127 10.078119,29.511092 L 15.359413,32.897529 C 15.628228,32.478232 15.901048,32.065581 16.177574,31.658437 Z M 118.13897,29.852261 112.83409,33.204725 C 113.10011,33.625714 113.35954,34.046468 113.61089,34.468915 L 119.00296,31.261175 C 118.71963,30.784971 118.43153,30.31524 118.13897,29.852261 Z M 9.2068022,30.911154 C 8.9213524,31.38215 8.6425584,31.856318 8.3693583,32.336338 L 13.821999,35.440701 C 14.06601,35.011888 14.315692,34.585003 14.572257,34.16172 Z M 119.82702,32.681922 114.36115,35.762643 C 114.60259,36.191049 114.83767,36.625521 115.07004,37.065223 L 120.61712,34.133663 C 120.36094,33.648863 120.09901,33.164492 119.82702,32.681922 Z M 7.5718423,33.776268 C 7.31074,34.262182 7.05705,34.750282 6.8097876,35.241298 L 12.414489,38.063586 C 12.637557,37.620648 12.865916,37.181418 13.099794,36.746239 Z M 121.3689,35.601672 115.74937,38.389987 C 115.97032,38.835304 116.18385,39.280258 116.39036,39.72654 L 122.08512,37.091823 C 121.85253,36.589061 121.61268,36.093073 121.3689,35.601672 Z M 6.0876584,36.721117 C 5.8520412,37.219528 5.6244385,37.722011 5.402355,38.227515 L 11.145888,40.751482 C 11.344378,40.299627 11.548995,39.850066 11.760264,39.403097 Z M 122.75712,38.590826 117.00179,41.089672 C 117.19771,41.540777 117.38788,41.997755 117.57337,42.458719 L 123.39516,40.116429 C 123.19032,39.60728 122.97777,39.098882 122.75712,38.590826 Z M 4.758412,39.741308 C 4.5484285,40.252579 4.3463069,40.764343 4.1514473,41.277243 L 10.016116,43.505824 C 10.192602,43.041216 10.375214,42.580958 10.562514,42.124945 Z M 123.99034,41.655321 118.11092,43.845493 C 118.28461,44.31173 118.4524,44.777389 118.61157,45.242597 L 124.54709,43.211918 C 124.36773,42.687765 124.18172,42.16895 123.99034,41.655321 Z M 3.5858423,42.826466 C 3.4036073,43.345561 3.2273485,43.867977 3.0585745,44.394895 L 9.033945,46.308886 C 9.1841935,45.83997 9.342456,45.371953 9.5065422,44.904408 Z M 125.06105,44.772952 119.07827,46.661865 C 119.22663,47.131982 119.3678,47.605464 119.50361,48.081133 L 125.5366,46.359106 C 125.38537,45.829252 125.22741,45.30002 125.06105,44.772952 Z M 2.5771292,45.96626 C 2.4207575,46.497422 2.2731563,47.027362 2.1325856,47.55833 L 8.1965766,49.165148 C 8.3236861,48.685257 8.4564675,48.209009 8.5953731,47.737007 Z M 125.96935,47.94674 119.89499,49.519585 C 120.01855,49.996668 120.13598,50.477738 120.24797,50.962473 L 126.36217,49.5506 C 126.23876,49.016502 126.10795,48.481932 125.96935,47.94674 Z M 1.7294035,49.159232 C 1.6027482,49.692901 1.4823686,50.229765 1.3690195,50.770486 L 7.5098372,52.056841 C 7.6110097,51.574098 7.7199733,51.091807 7.834756,50.608037 Z M 126.71219,51.161854 120.56396,52.415714 C 120.66317,52.902185 120.75641,53.3884 120.84162,53.87337 L 127.02086,52.786397 C 126.92505,52.241475 126.82191,51.699982 126.71219,51.161854 Z M 1.0515106,52.384698 C 0.95192433,52.925849 0.8589166,53.470171 0.77385021,54.016615 L 6.9737218,54.981006 C 7.0494897,54.494234 7.1322134,54.007656 7.2218927,53.520391 Z M 127.28521,54.409462 121.08238,55.347274 C 121.15626,55.836125 121.22303,56.325597 121.28322,56.815284 L 127.51115,56.048795 C 127.44377,55.500593 127.36763,54.954556 127.28521,54.409462 Z M 0.54050091,55.642638 C 0.4685888,56.189939 0.40522426,56.737736 0.34851145,57.286385 L 6.5883086,57.93179 C 6.6391229,57.440328 6.6967431,56.950296 6.761091,56.460825 Z M 127.69134,57.682191 121.44867,58.299518 C 121.49729,58.790553 121.53895,59.283007 121.57419,59.776379 L 127.83168,59.330378 C 127.79244,58.780714 127.74578,58.231742 127.69134,57.682191 Z M 0.19788578,58.922759 C 0.15410436,59.473342 0.11871627,60.02401 0.09005815,60.573883 L 6.3549593,60.900263 C 6.3806701,60.405882 6.4132589,59.912248 6.452428,59.420464 Z M 127.92915,60.969689 121.66281,61.268008 C 121.68625,61.76108 121.70289,62.255762 121.71302,62.750762 L 127.98526,62.623768 C 127.97407,62.073316 127.95539,61.521106 127.92915,60.969689 Z M 0.02359263,62.214675 C 0.00793907,62.766284 6.8167444e-4,63.318302 0,63.868754 L 6.2736739,63.876149 C 6.2743533,63.380911 6.2818404,62.887023 6.2958283,62.393373 Z M 121.72625,64.000211 C 121.72625,64.496731 121.71967,64.992808 121.70705,65.48888 L 127.97936,65.648375 C 127.99327,65.09908 128,64.549353 128,64.000211 Z M 6.2899297,65.370733 0.01769405,65.509546 C 0.02994377,66.061387 0.04960287,66.613773 0.07674962,67.163625 L 6.343089,66.853493 C 6.318665,66.358941 6.3008955,65.864304 6.2899297,65.370733 Z M 121.65094,66.976074 C 121.62576,67.471999 121.5943,67.967946 121.55642,68.461789 L 127.81248,68.940285 C 127.85452,68.391506 127.88945,67.843498 127.91728,67.295082 Z M 6.4346585,68.343642 0.1771673,68.802936 C 0.21762031,69.353904 0.26541068,69.902468 0.32045788,70.449643 L 6.5632046,69.821983 C 6.5135263,69.328736 6.4707283,68.835556 6.4346585,68.343642 Z M 121.42349,69.944542 C 121.37313,70.438499 121.31687,70.930584 121.25365,71.419946 L 127.4772,72.223349 C 127.54789,71.675636 127.6105,71.127435 127.66624,70.581077 Z M 6.7315266,71.304737 0.50503569,72.086016 C 0.57384625,72.633854 0.65127811,73.178261 0.73399948,73.720893 L 6.9353093,72.775706 C 6.8604498,72.284586 6.7930004,71.794446 6.7315266,71.304737 Z M 121.04541,72.896791 C 120.9701,73.386392 120.88866,73.874212 120.80027,74.358902 L 126.97208,75.484266 C 127.07129,74.940222 127.16157,74.396241 127.24536,73.852327 Z M 7.1790175,74.242213 1.0027386,75.348391 C 1.0994507,75.888386 1.2039516,76.430008 1.3158625,76.97146 L 7.4596275,75.701352 C 7.3598915,75.218783 7.2666564,74.731519 7.1790175,74.242213 Z M 120.51376,75.825414 C 120.41387,76.308045 120.30695,76.789695 120.1933,77.27126 L 126.30016,78.712665 C 126.42667,78.176533 126.54553,77.638341 126.65752,77.096997 Z M 7.7800876,77.157548 1.6673235,78.578276 C 1.7920132,79.114987 1.9247197,79.650371 2.0646064,80.185092 L 8.1345731,78.595999 C 8.0097308,78.119112 7.8919985,77.63939 7.7800876,77.157548 Z M 119.83291,78.718586 C 119.70807,79.195172 119.57597,79.673374 119.43714,80.151139 L 125.46272,81.901202 C 125.61569,81.374824 125.76269,80.844107 125.90288,80.309154 Z M 8.5303452,80.03741 2.5003047,81.769768 C 2.6532749,82.302067 2.8128984,82.829732 2.9788005,83.352963 L 8.9586313,81.456681 C 8.8085353,80.983129 8.6661493,80.510162 8.5303452,80.03741 Z M 119.00296,81.573348 C 118.85226,82.0461 118.69702,82.514802 118.53475,82.979326 L 124.45703,85.04839 C 124.63957,84.525738 124.81439,84.002014 124.98128,83.478505 Z M 9.426843,82.868551 3.4972196,84.918436 C 3.6762782,85.436353 3.8633502,85.955126 4.0584395,86.473577 L 9.9304427,84.264179 C 9.7572832,83.803921 9.5894909,83.338904 9.426843,82.868551 Z M 118.02525,84.383823 C 117.85209,84.844167 117.67076,85.304766 117.48324,85.764678 L 123.29324,88.133548 C 123.5005,87.62517 123.70232,87.111586 123.89725,86.593198 Z M 10.472455,85.65539 4.655047,88.005074 C 4.8620815,88.517841 5.075998,89.026157 5.2960388,89.530673 L 11.046906,87.022957 C 10.848945,86.568999 10.656883,86.112279 10.472455,85.65539 Z M 116.90433,87.135206 C 116.70455,87.591177 116.50069,88.041726 116.29138,88.486531 L 121.96853,91.158177 C 122.20437,90.656809 122.43099,90.153597 122.65081,89.65178 Z M 11.658333,88.380191 5.9724209,91.032635 C 6.2042588,91.529353 6.4444135,92.026457 6.6916759,92.52131 L 12.30379,89.716749 C 12.083597,89.276164 11.868772,88.830996 11.658333,88.380191 Z M 115.63867,89.830478 C 115.41863,90.270649 115.19178,90.709902 114.95783,91.147822 L 120.4916,94.104505 C 120.75043,93.620156 121.00321,93.130231 121.25071,92.635039 Z M 12.98758,91.044448 7.4433717,93.981923 C 7.7022021,94.470368 7.9670082,94.954717 8.2379381,95.433685 L 13.699425,92.344092 C 13.455489,91.912876 13.218359,91.479969 12.98758,91.044448 Z M 114.24001,92.451906 C 113.99426,92.884875 113.7439,93.311504 113.48983,93.732342 L 118.86118,96.975515 C 119.14753,96.501197 119.42512,96.025247 119.6956,95.548871 Z M 14.448171,93.63042 9.067972,96.858848 C 9.3493362,97.327914 9.6373562,97.795891 9.9348282,98.263346 L 15.227918,94.894637 C 14.96402,94.479906 14.704659,94.058098 14.448171,93.63042 Z M 112.70259,95.003908 C 112.43869,95.418747 112.16723,95.831867 111.88889,96.244476 L 117.0889,99.7535 C 117.39537,99.299287 117.69829,98.838558 117.99568,98.371137 Z M 16.046154,96.146995 10.832764,99.638308 C 11.140897,100.09816 11.454399,100.5525 11.772059,100.99996 L 16.887984,97.36688 C 16.600266,96.961711 16.320034,96.555856 16.046154,96.146995 Z M 111.03966,97.467322 C 110.75148,97.871827 110.46029,98.27044 110.16388,98.66357 L 115.17341,102.44137 C 115.50657,101.99957 115.83111,101.55494 116.1496,101.10777 Z M 17.765199,98.570523 12.743871,102.3306 C 13.072421,102.76938 13.407322,103.20643 13.75107,103.64057 L 18.670545,99.746105 C 18.365208,99.360439 18.063428,98.968745 17.765199,98.570523 Z M 109.24968,99.846541 C 108.94389,100.23275 108.63107,100.61657 108.3119,100.99849 L 113.12649,105.02293 C 113.47788,104.60248 113.82586,104.17463 114.16916,103.74102 Z M 19.612789,100.90839 14.784887,104.9166 C 15.138918,105.3429 15.49832,105.7607 15.858552,106.17192 L 20.577191,102.03819 C 20.248339,101.66288 19.926822,101.28654 19.612789,100.90839 Z M 107.3416,102.12976 C 107.01517,102.50113 106.68397,102.86776 106.34763,103.23002 L 110.94514,107.49962 C 111.32034,107.09556 111.69033,106.68638 112.05426,106.27236 Z M 21.572595,103.14435 16.960348,107.39772 C 17.333434,107.80246 17.712419,108.20285 18.09753,108.5984 L 22.593104,104.22099 C 22.24875,103.86728 21.908178,103.50845 21.572595,103.14435 Z M 105.31979,104.31108 C 104.97226,104.66721 104.62306,105.01618 104.26972,105.35964 L 108.64271,109.85963 C 109.03917,109.47429 109.42814,109.08519 109.8109,108.69293 Z M 23.646125,105.27843 19.258304,109.76365 C 19.651204,110.14794 20.050303,110.52722 20.454619,110.9023 L 24.721226,106.30337 C 24.358954,105.96726 24.000762,105.62537 23.646125,105.27843 Z M 103.18569,106.38902 C 102.82463,106.72376 102.45585,107.05509 102.08246,107.38295 L 106.22362,112.09709 C 106.63603,111.73498 107.04511,111.36562 107.45086,110.98943 Z M 25.828921,107.30467 21.673013,112.00552 C 22.087159,112.37168 22.50539,112.7309 22.92687,113.08364 L 26.954307,108.27202 C 26.573809,107.95361 26.198151,107.63114 25.828921,107.30467 Z M 100.95269,108.3503 C 100.5706,108.66902 100.18678,108.98177 99.800683,109.28663 L 103.68785,114.21048 C 104.12242,113.86727 104.55033,113.52041 104.9712,113.16929 Z M 28.107672,109.21425 24.202882,114.12629 C 24.631472,114.4669 25.067093,114.80344 25.509899,115.13646 L 29.28183,110.12252 C 28.888932,109.82703 28.497772,109.52425 28.107672,109.21425 Z M 98.616242,110.19932 C 98.223497,110.49483 97.823413,110.78735 97.417057,111.07658 L 101.05454,116.18799 C 101.50014,115.87088 101.94537,115.54641 102.38817,115.21326 Z M 30.486915,111.00715 26.833171,116.10825 C 27.283613,116.43081 27.736776,116.74512 28.190395,117.05196 L 31.705384,111.85488 C 31.292827,111.57585 30.886696,111.29341 30.486915,111.00715 Z M 96.192765,111.92281 C 95.781945,112.19972 95.368477,112.47073 94.95214,112.7351 L 98.31499,118.03111 C 98.78146,117.73491 99.242492,117.43336 99.698829,117.12579 Z M 32.948883,112.67307 29.568338,117.95727 C 30.031029,118.25334 30.498788,118.54468 30.972821,118.8301 L 34.208639,113.45581 C 33.786852,113.20181 33.366958,112.94059 32.948883,112.67307 Z M 93.682025,113.52077 C 93.258803,113.77541 92.831877,114.02518 92.400114,114.26955 L 95.489767,119.7295 C 95.968033,119.4588 96.443578,119.18099 96.916406,118.89654 Z M 35.497957,114.21048 32.389176,119.66155 C 32.870242,119.93595 33.35252,120.2006 33.835023,120.45905 L 36.797562,114.92823 C 36.358313,114.69293 35.925188,114.45412 35.497957,114.21048 Z M 91.093097,114.98582 C 90.657098,115.21849 90.217696,115.44623 89.775724,115.66666 L 92.57592,121.2802 C 93.069686,121.0339 93.560356,120.78072 94.046868,120.52108 Z M 38.119398,115.61348 35.298564,121.21817 C 35.790141,121.46552 36.286708,121.70698 36.78728,121.94183 L 39.45303,116.26182 C 39.006901,116.05252 38.561902,115.83616 38.119398,115.61348 Z M 88.433245,116.31648 C 87.98545,116.52628 87.534479,116.72978 87.080479,116.92789 L 89.589631,122.67878 C 90.094064,122.4587 90.595469,122.23177 91.094611,121.99794 Z M 40.811694,116.88063 38.283334,122.62267 C 38.790263,122.84595 39.297793,123.06082 39.804494,123.26805 L 42.179274,117.46105 C 41.718094,117.27243 41.261758,117.07881 40.811694,116.88063 Z M 85.707001,117.50683 C 85.248924,117.69324 84.789401,117.87263 84.32762,118.04588 L 86.531062,123.92083 C 87.048272,123.72681 87.562454,123.52458 88.072933,123.3168 Z M 43.563118,118.00453 41.33896,123.87209 C 41.852921,124.06693 42.371265,124.25581 42.894068,124.43772 L 44.955804,118.51109 C 44.490995,118.34935 44.02694,118.18036 43.563118,118.00453 Z M 82.923064,118.55392 C 82.458482,118.71557 81.988535,118.8711 81.514199,119.02208 L 83.416382,125.00041 C 83.938425,124.83428 84.46184,124.66104 84.984795,124.47909 Z M 46.373596,118.98515 44.452204,124.95904 C 44.979322,125.12857 45.506588,125.28968 46.033933,125.44346 L 47.791388,119.41934 C 47.314857,119.28038 46.841961,119.13579 46.373596,118.98515 Z M 80.090435,119.4548 C 79.613524,119.59307 79.138433,119.72362 78.662355,119.84764 L 80.244084,125.91902 C 80.779896,125.77942 81.310184,125.63328 81.837603,125.48039 Z M 49.223925,119.81811 47.622994,125.88505 C 48.153056,126.02482 48.687206,126.15848 49.225439,126.28529 L 50.665383,120.17846 C 50.185755,120.06546 49.705067,119.94497 49.223925,119.81811 Z M 77.21205,120.208 C 76.732043,120.32093 76.249007,120.42718 75.764689,120.527 L 77.031855,126.67074 C 77.57175,126.55947 78.111118,126.44135 78.649051,126.3148 Z M 52.120078,120.50338 50.832269,126.64268 C 51.371103,126.75577 51.91274,126.86313 52.456792,126.96168 L 53.574772,120.78693 C 53.089921,120.69909 52.604622,120.60506 52.120078,120.50338 Z M 74.299639,120.81056 C 73.814794,120.89833 73.327073,120.97894 72.836097,121.05424 L 73.787192,127.25557 C 74.329883,127.17236 74.873561,127.08232 75.417693,126.98382 Z M 55.048743,121.03652 54.076931,127.23489 C 54.622878,127.3205 55.16837,127.398 55.71477,127.46824 L 56.515233,121.24475 C 56.02449,121.18166 55.535862,121.11288 55.048743,121.03652 Z M 71.3622,121.261 C 70.869869,121.32362 70.377839,121.37968 69.885281,121.42936 L 70.514474,127.67204 C 71.062309,127.61676 71.608783,127.55383 72.153742,127.48449 Z M 57.997979,121.41755 57.348216,127.65875 C 57.897712,127.71604 58.446682,127.76427 58.994896,127.80645 L 59.476339,121.55194 C 58.981966,121.5139 58.488495,121.46867 57.997979,121.41755 Z M 68.401096,121.5608 C 67.906344,121.59822 67.411971,121.62962 66.918273,121.65384 L 67.225503,127.92016 C 67.776207,127.89313 68.32563,127.85822 68.873692,127.81678 Z M 60.96506,121.64794 60.635679,127.91276 C 61.18631,127.94166 61.737247,127.96352 62.286817,127.97775 L 62.449318,121.70554 C 61.953505,121.69268 61.458679,121.67384 60.96506,121.64794 Z M 65.426682,121.7085 C 64.931169,121.72076 64.435815,121.72702 63.94091,121.7262 L 63.930554,127.99992 C 64.481412,128.00082 65.031815,127.99433 65.581692,127.98071 Z M 63.999969,6.1501342 C 32.084294,6.1501342 6.1510995,32.084614 6.1510995,64.000211 6.1510995,95.915783 32.084294,121.84879 63.999969,121.84879 95.915706,121.84879 121.84882,95.915783 121.84882,64.000211 121.84882,32.084614 95.915706,6.1501342 63.999969,6.1501342 Z M 63.999969,11.821268 C 92.850779,11.821268 116.17766,35.149516 116.17766,64.000211 116.17766,92.85086 92.850779,116.17765 63.999969,116.17765 35.14922,116.17765 11.82227,92.85086 11.82227,64.000211 11.82227,35.149516 35.14922,11.821268 63.999969,11.821268 Z"
       sodipodi:nodetypes="ccccccccccccccccccccccccccccccccccccccccccccccccccccccccccccccccccccccccccccccccccccccccccccccccccccccccccccccccccccccccccccccccccccccccccccccccccccccccccccccccccccccccccccccccccccccccccccccccccccccccccccccccccccccccccccccccccccccccccccccccccccccccccccccccccccccccccccccccccccccccccccccccccccccccccccccccccccccccccccccccccccccccccccccccccccccccccccccccccccccccccccccccccccccccccccccccccccccccccccccccccccccccccccccccccccccccccccccccccccccccccccccccccccccccccccccccccccccccccccccccccccccccccccccccccccccccccccccccccccccccccccccccccccccccccccccccccccccccccccccccccccccccccccccccccccccccccccccccccccccccccccccccccssssssssss" />
  </g>
  <g
     inkscape:groupmode="layer"
     id="layer2"
     inkscape:label="Small"
     style="display:none">
    <path
       style="font-variation-settings:'wght' 700;fill:none;stroke:#14b2c9;stroke-width:5;stroke-miterlimit:4;stroke-dasharray:none;stroke-opacity:0.990654"
       id="path3368"
       sodipodi:type="arc"
       sodipodi:cx="64"
       sodipodi:cy="64"
       sodipodi:rx="61.5"
       sodipodi:ry="61.5"
       sodipodi:start="2.9775577"
       sodipodi:end="3.9218988"
       sodipodi:open="true"
       sodipodi:arc-type="arc"
       d="M 3.325551,74.042969 A 61.5,61.5 0 0 1 20.292061,20.734933" />
  </g>
  <g
     inkscape:groupmode="layer"
     id="layer3"
     inkscape:label="Wide"
     style="display:inline">
    <path
       style="font-variation-settings:'wght' 700;fill:none;stroke:#14b2c9;stroke-width:5;stroke-miterlimit:4;stroke-dasharray:none;stroke-opacity:0.990654"
       id="circle3192"
       sodipodi:type="arc"
       sodipodi:cx="64"
       sodipodi:cy="64"
       sodipodi:rx="61.5"
       sodipodi:ry="61.5"
       sodipodi:start="5.7345171"
       sodipodi:end="1.5886865"
       sodipodi:arc-type="arc"
       d="M 116.47302,31.92459 A 61.5,61.5 0 0 1 117.3706,94.558617 61.5,61.5 0 0 1 62.899813,125.49016"
       sodipodi:open="true" />
  </g>
  <g
     inkscape:groupmode="layer"
     id="layer4"
     inkscape:label="Outer"
     style="display:none">
    <circle
       style="font-variation-settings:'wght' 700;opacity:1;fill:none;stroke:#14b2c9;stroke-width:1;stroke-miterlimit:4;stroke-dasharray:none;stroke-opacity:1"
       id="circle4751"
       cx="64"
       cy="64"
       r="61.5" />
  </g>
  <g
     inkscape:groupmode="layer"
     id="layer6"
     inkscape:label="ImageScaler"
     style="display:none;opacity:0.518293"
     sodipodi:insensitive="true">
    <circle
       style="font-variation-settings:'wght' 700;fill:none;stroke:#14b2c9;stroke-width:5;stroke-miterlimit:4;stroke-dasharray:none;stroke-opacity:1"
       id="path1739"
       cx="64"
       cy="64"
       r="61.5" />
  </g>
</svg>
