<?xml version="1.0" encoding="UTF-8" standalone="no"?>
<!-- Created with Inkscape (http://www.inkscape.org/) -->

<svg
   width="33.794304mm"
   height="33.721241mm"
   viewBox="0 0 33.794304 33.721241"
   version="1.1"
   id="svg3337"
   inkscape:version="1.1 (c68e22c387, 2021-05-23)"
   sodipodi:docname="graphic-familiar-01.svg"
   xmlns:inkscape="http://www.inkscape.org/namespaces/inkscape"
   xmlns:sodipodi="http://sodipodi.sourceforge.net/DTD/sodipodi-0.dtd"
   xmlns="http://www.w3.org/2000/svg"
   xmlns:svg="http://www.w3.org/2000/svg">
  <sodipodi:namedview
     id="namedview3339"
     pagecolor="#ffffff"
     bordercolor="#666666"
     borderopacity="1.0"
     inkscape:pageshadow="2"
     inkscape:pageopacity="0.0"
     inkscape:pagecheckerboard="0"
     inkscape:document-units="mm"
     showgrid="false"
     inkscape:zoom="0.67081229"
     inkscape:cx="168.45249"
     inkscape:cy="114.04084"
     inkscape:window-width="1920"
     inkscape:window-height="1017"
     inkscape:window-x="-8"
     inkscape:window-y="-8"
     inkscape:window-maximized="1"
     inkscape:current-layer="layer1" />
  <defs
     id="defs3334">
    <clipPath
       id="b491992e3a">
      <path
         d="M 144.58984,209 H 240.58984 V 306 H 144.58984 Z M 144.58984,209"
         clip-rule="nonzero"
         id="path61" />
    </clipPath>
  </defs>
  <g
     inkscape:label="Layer 1"
     inkscape:groupmode="layer"
     id="layer1"
     transform="translate(-60.409621,-118.42623)">
    <g
       clip-path="url(#b491992e3a)"
       id="g909"
       transform="matrix(0.35277777,0,0,0.35277777,9.3291772,44.455169)">
      <path
         fill="#fffdfa"
         d="M 174.58984,226.41797 C 175.17187,226.71094 175.87891,226.59375 176.33594,226.12891 183.24219,219.09375 195.70703,222.19531 201.10937,224.68359 L 199.51562,227.43359 C 199.23437,227.92187 199.25,228.52344 199.55859,228.99609 199.83594,229.42187 200.30859,229.67187 200.8125,229.67187 200.86719,229.67187 200.92187,229.67187 200.97656,229.66406 L 216.42187,227.97266 C 216.87891,227.92187 217.28906,227.66406 217.53125,227.27734 217.77344,226.88672 217.82422,226.40625 217.66406,225.97656 L 212.05859,210.66406 C 211.85937,210.11719 211.35937,209.73828 210.78125,209.6875 210.20312,209.63672 209.64453,209.92578 209.35547,210.42969 L 207.80078,213.11719 C 200.02734,209.11328 191.29687,208.70703 184.16797,212.07422 178.46484,214.76953 174.67969,219.42187 173.78906,224.84375 173.68359,225.48437 174.00781,226.12109 174.58984,226.41797 Z M 185.44922,214.77344 C 192.09375,211.63672 200.37891,212.25 207.61719,216.41797 207.96094,216.61719 208.37109,216.67187 208.75391,216.57031 209.13672,216.46484 209.46484,216.21484 209.66016,215.87109 L 210.34375,214.69141 214.19531,225.21094 203.58594,226.375 204.48437,224.81641 C 204.68359,224.47266 204.73828,224.06641 204.63672,223.68359 204.53125,223.30078 204.28125,222.97656 203.9375,222.77734 201.28516,221.25 196.12109,219.32031 190.29687,218.91406 189.58203,218.86719 188.88281,218.83984 188.19531,218.83984 184.44141,218.83984 181.11328,219.57812 178.32031,221.01562 179.83984,218.4375 182.29297,216.26562 185.44922,214.77344 Z M 239.32812,253.08594 233.97266,252.23047 C 233.67969,251.30469 233.30469,250.40625 232.85937,249.54297 L 236.03906,245.16016 C 236.47266,244.56641 236.40625,243.74609 235.88672,243.22656 L 231.75391,239.10547 C 231.23437,238.58594 230.41406,238.51953 229.81641,238.94922 L 225.42187,242.125 C 224.55859,241.67578 223.65625,241.30469 222.73047,241.01172 L 221.875,235.66797 C 221.75781,234.94141 221.13281,234.41016 220.39844,234.41016 H 214.55078 C 213.81641,234.41016 213.19141,234.94141 213.07422,235.66797 L 212.21875,241.01172 C 211.29297,241.30469 210.39062,241.67578 209.52734,242.125 L 205.13281,238.94922 C 204.53516,238.51953 203.71484,238.58594 203.19531,239.10547 L 199.0625,243.22656 C 198.54297,243.74609 198.47656,244.56641 198.91016,245.16016 L 202.08984,249.54297 C 201.64453,250.40625 201.26953,251.30469 200.97656,252.23047 L 195.62109,253.08594 C 194.89453,253.19922 194.35937,253.82422 194.35937,254.55859 V 260.39062 C 194.35937,261.125 194.89453,261.75 195.62109,261.86719 L 200.97656,262.72266 C 201.26953,263.64453 201.64453,264.54297 202.08984,265.40625 L 198.91016,269.78906 C 198.47656,270.38672 198.54297,271.20312 199.0625,271.72266 L 203.19531,275.84766 C 203.71484,276.36328 204.53516,276.42969 205.13281,276 L 209.52734,272.82422 C 210.39062,273.27344 211.29297,273.64453 212.21875,273.94141 L 213.07422,279.28125 C 213.19141,280.00781 213.81641,280.53906 214.55078,280.53906 H 220.39844 C 221.13281,280.53906 221.75781,280.00781 221.875,279.28125 L 222.73047,273.9375 C 223.65625,273.64453 224.55859,273.27344 225.42187,272.82422 L 229.81641,276 C 230.41406,276.42969 231.23437,276.36328 231.75391,275.84766 L 235.88672,271.72266 C 236.40625,271.20312 236.47266,270.38672 236.03906,269.78906 L 232.85937,265.40625 C 233.30469,264.54297 233.67969,263.64453 233.97266,262.72266 L 239.32812,261.86719 C 240.05469,261.75 240.58984,261.125 240.58984,260.39062 V 254.55859 C 240.58984,253.82422 240.05469,253.19922 239.32812,253.08594 Z M 237.59766,259.11719 232.5625,259.92187 C 231.97266,260.01562 231.49609,260.44922 231.34766,261.02734 231.01562,262.33203 230.49219,263.58594 229.80078,264.75 229.49609,265.26562 229.52734,265.90625 229.875,266.39062 L 232.86719,270.51172 230.53906,272.83203 226.40625,269.84766 C 225.92578,269.5 225.28125,269.47266 224.76562,269.77344 223.60156,270.46484 222.34375,270.98437 221.03516,271.32031 220.45703,271.46875 220.01953,271.94141 219.92578,272.53125 L 219.12109,277.55469 H 215.82812 L 215.02344,272.53125 C 214.92969,271.94141 214.49219,271.46875 213.91406,271.32031 212.60547,270.98437 211.35156,270.46484 210.18359,269.77344 209.66797,269.47266 209.02344,269.5 208.54297,269.85156 L 204.41016,272.83203 202.08203,270.51172 205.07422,266.39062 C 205.42187,265.90625 205.45312,265.26562 205.14844,264.75 204.45703,263.58594 203.9375,262.33594 203.60156,261.02734 203.45312,260.44922 202.97656,260.01562 202.38672,259.92187 L 197.35156,259.11719 V 255.83203 L 202.38672,255.02734 C 202.97656,254.93359 203.45312,254.5 203.60156,253.92578 203.9375,252.61719 204.45703,251.36328 205.14844,250.19922 205.45312,249.6875 205.42187,249.04297 205.07422,248.5625 L 202.08203,244.4375 204.41016,242.11719 208.54297,245.10156 C 209.02344,245.44922 209.66797,245.48047 210.18359,245.17578 211.35156,244.48437 212.60547,243.96484 213.91406,243.63281 214.49219,243.48437 214.92969,243.00781 215.02344,242.42187 L 215.82812,237.39844 H 219.12109 L 219.92578,242.42187 C 220.01953,243.00781 220.45703,243.48437 221.03516,243.63281 222.34375,243.96484 223.59766,244.48437 224.76562,245.17578 225.28125,245.48047 225.92578,245.44922 226.40625,245.10156 L 230.53906,242.11719 232.86719,244.4375 229.875,248.5625 C 229.52734,249.04297 229.49609,249.6875 229.80078,250.19922 230.49219,251.36328 231.01172,252.61719 231.34766,253.92578 231.49609,254.5 231.97266,254.93359 232.5625,255.02734 L 237.59766,255.83203 Z M 217.47656,247.36328 C 211.88672,247.36328 207.34375,251.90234 207.34375,257.47656 207.34375,263.05078 211.88672,267.58594 217.47656,267.58594 223.0625,267.58594 227.60547,263.05078 227.60547,257.47656 227.60547,251.90234 223.0625,247.36328 217.47656,247.36328 Z M 217.47656,264.59766 C 213.53906,264.59766 210.33594,261.40234 210.33594,257.47656 210.33594,253.54687 213.53906,250.35156 217.47656,250.35156 221.41016,250.35156 224.61328,253.54687 224.61328,257.47656 224.61328,261.40234 221.41016,264.59766 217.47656,264.59766 Z M 174.94141,276.98828 V 275.875 C 176.22656,275.28125 177.125,273.98047 177.125,272.47266 V 270.26562 C 177.46875,264.56641 178.88281,262.14844 180.25391,259.8125 181.53125,257.63672 182.73437,255.58203 182.73437,251.58984 182.73437,243.10937 175.82031,236.20703 167.31641,236.20703 158.81641,236.20703 151.89844,243.10937 151.89844,251.58984 151.89844,255.58203 153.10547,257.63672 154.38281,259.8125 155.75,262.14844 157.16797,264.56641 157.50781,270.26562 V 272.47266 C 157.50781,274.03906 158.47656,275.38281 159.84766,275.94531 V 276.98828 C 159.84766,278.54687 160.80469,279.88672 162.16797,280.45312 V 281.50391 C 162.16797,283.57031 163.85156,285.25391 165.92578,285.25391 H 168.85937 C 170.93359,285.25391 172.62109,283.57031 172.62109,281.50391 V 280.45312 C 173.98047,279.88672 174.94141,278.54687 174.94141,276.98828 Z M 171.17969,277.75 H 163.60547 C 163.19141,277.75 162.83984,277.40234 162.83984,276.98828 V 276.22266 H 171.94531 V 276.98828 C 171.94531,277.40234 171.59375,277.75 171.17969,277.75 Z M 161.26562,273.23828 C 160.85156,273.23828 160.50391,272.88672 160.50391,272.47266 V 271.71094 H 174.13281 V 272.47266 C 174.13281,272.88672 173.78125,273.23828 173.36719,273.23828 Z M 163.41797,253.42578 H 161.67969 C 160.71875,253.42578 159.94141,252.64844 159.94141,251.69141 159.94141,250.73828 160.71875,249.95703 161.67969,249.95703 162.63672,249.95703 163.41797,250.73828 163.41797,251.69141 Z M 168.22266,268.72266 H 166.41016 V 256.41406 H 168.22266 Z M 154.89453,251.58984 C 154.89453,244.75391 160.46875,239.19531 167.31641,239.19531 174.16797,239.19531 179.74219,244.75391 179.74219,251.58984 179.74219,254.77344 178.82812,256.33203 177.66797,258.30469 176.37109,260.51953 174.77734,263.23437 174.24609,268.72266 H 171.21875 V 256.41406 H 172.95703 C 175.56641,256.41406 177.6875,254.29687 177.6875,251.69141 177.6875,249.08984 175.56641,246.97266 172.95703,246.97266 170.34766,246.97266 168.22266,249.08984 168.22266,251.69141 V 253.42578 H 166.41016 V 251.69141 C 166.41016,249.08984 164.28906,246.97266 161.67969,246.97266 159.07031,246.97266 156.94531,249.08984 156.94531,251.69141 156.94531,254.29687 159.07031,256.41406 161.67969,256.41406 H 163.41797 V 268.72266 H 160.39062 C 159.85547,263.23437 158.26562,260.51953 156.96484,258.30469 155.80859,256.33203 154.89453,254.77344 154.89453,251.58984 Z M 171.21875,253.42578 V 251.69141 C 171.21875,250.73828 171.99609,249.95703 172.95703,249.95703 173.91406,249.95703 174.69531,250.73828 174.69531,251.69141 174.69531,252.64844 173.91406,253.42578 172.95703,253.42578 Z M 168.85937,282.26562 H 165.92578 C 165.51172,282.26562 165.16016,281.91797 165.16016,281.50391 V 280.73828 H 169.625 V 281.50391 C 169.625,281.91797 169.27734,282.26562 168.85937,282.26562 Z M 165.82031,233.00391 V 229.73437 C 165.82031,228.90625 166.49219,228.23828 167.31641,228.23828 168.14453,228.23828 168.8125,228.90625 168.8125,229.73437 V 233.00391 C 168.8125,233.82812 168.14453,234.5 167.31641,234.5 166.49219,234.5 165.82031,233.82812 165.82031,233.00391 Z M 153.88281,233.72656 C 153.46875,233.01172 153.71484,232.09766 154.42969,231.68359 155.14453,231.27344 156.0625,231.51562 156.47266,232.23047 L 158.11328,235.06641 C 158.52734,235.78125 158.28125,236.69141 157.56641,237.10547 157.33203,237.24219 157.07422,237.30469 156.82031,237.30469 156.30078,237.30469 155.79687,237.03906 155.51953,236.55859 Z M 150.42969,244.22656 C 150.15234,244.70703 149.64844,244.97656 149.12891,244.97656 148.875,244.97656 148.61719,244.91016 148.38281,244.77344 L 145.54297,243.14062 C 144.82812,242.72656 144.58203,241.8125 144.99609,241.09766 145.41016,240.38281 146.32422,240.14062 147.03906,240.55078 L 149.87891,242.1875 C 150.59766,242.60156 150.83984,243.51562 150.42969,244.22656 Z M 180.20312,231.68359 C 180.92187,232.09766 181.16406,233.01172 180.75391,233.72656 L 179.11328,236.55859 C 178.83594,237.03906 178.33203,237.30469 177.81641,237.30469 177.5625,237.30469 177.30469,237.24219 177.06641,237.10547 176.35156,236.69141 176.10547,235.78125 176.51953,235.06641 L 178.16016,232.23047 C 178.57422,231.51562 179.48828,231.27344 180.20312,231.68359 Z M 189.64062,241.09766 C 190.05078,241.8125 189.80859,242.72656 189.08984,243.14062 L 186.25,244.77344 C 186.01562,244.91016 185.75781,244.97656 185.50391,244.97656 184.98828,244.97656 184.48437,244.70703 184.20703,244.22656 183.79297,243.51562 184.03906,242.60156 184.75391,242.1875 L 187.59375,240.55078 C 188.30859,240.14062 189.22656,240.38281 189.64062,241.09766 Z M 215.73047,289.32031 C 215.14844,289.02344 214.44141,289.14062 213.98437,289.60547 207.53516,296.17969 195.91016,293.32812 190.78906,290.99219 L 192.24609,288.47656 C 192.52734,287.98828 192.51172,287.38672 192.20312,286.91406 191.89453,286.44141 191.34766,286.18359 190.78516,286.24609 L 176.21094,287.84375 C 175.75391,287.89453 175.34766,288.14844 175.10547,288.53906 174.86328,288.92969 174.8125,289.41016 174.96875,289.83984 L 180.26172,304.28906 C 180.46094,304.83203 180.95703,305.21484 181.53516,305.26562 181.58203,305.26953 181.625,305.26953 181.66797,305.26953 182.19922,305.26953 182.69531,304.98828 182.96094,304.52344 L 184.39062,302.05469 C 191.72656,305.80859 199.96094,306.17969 206.69141,303.00391 212.09766,300.44922 215.68359,296.03516 216.53125,290.89453 216.63672,290.25 216.3125,289.61328 215.73047,289.32031 Z M 205.41016,300.30469 C 199.16406,303.25391 191.375,302.67187 184.57031,298.75391 184.34375,298.62109 184.08203,298.55469 183.82422,298.55469 183.69531,298.55469 183.5625,298.57031 183.4375,298.60547 183.05078,298.70703 182.72656,298.95703 182.52734,299.30078 L 181.97266,300.26172 178.4375,290.60547 188.17578,289.53906 187.41016,290.86328 C 186.99609,291.57812 187.24219,292.48828 187.95703,292.90234 190.46875,294.34766 195.35547,296.17578 200.86328,296.55469 205.11719,296.85156 208.86719,296.21484 211.94531,294.69922 210.51562,297.00391 208.26953,298.95312 205.41016,300.30469 Z M 205.41016,300.30469"
         fill-opacity="1"
         fill-rule="nonzero"
         id="path907" />
    </g>
  </g>
</svg>
