<?xml version="1.0" encoding="UTF-8" standalone="no"?>
<!-- Created with Inkscape (http://www.inkscape.org/) -->

<svg
   width="29.102787mm"
   height="34.395832mm"
   viewBox="0 0 29.102787 34.395832"
   version="1.1"
   id="svg3337"
   inkscape:version="1.1 (c68e22c387, 2021-05-23)"
   sodipodi:docname="graphic-familiar-03.svg"
   xmlns:inkscape="http://www.inkscape.org/namespaces/inkscape"
   xmlns:sodipodi="http://sodipodi.sourceforge.net/DTD/sodipodi-0.dtd"
   xmlns="http://www.w3.org/2000/svg"
   xmlns:svg="http://www.w3.org/2000/svg">
  <sodipodi:namedview
     id="namedview3339"
     pagecolor="#ffffff"
     bordercolor="#666666"
     borderopacity="1.0"
     inkscape:pageshadow="2"
     inkscape:pageopacity="0.0"
     inkscape:pagecheckerboard="0"
     inkscape:document-units="mm"
     showgrid="false"
     inkscape:zoom="2.6832492"
     inkscape:cx="39.877027"
     inkscape:cy="49.380431"
     inkscape:window-width="1920"
     inkscape:window-height="1017"
     inkscape:window-x="-8"
     inkscape:window-y="-8"
     inkscape:window-maximized="1"
     inkscape:current-layer="layer1" />
  <defs
     id="defs3334">
    <clipPath
       id="b491992e3a">
      <path
         d="M 144.58984,209 H 240.58984 V 306 H 144.58984 Z M 144.58984,209"
         clip-rule="nonzero"
         id="path61" />
    </clipPath>
    <clipPath
       id="47c79712f2">
      <path
         d="M 532,249 H 568.06641 V 293 H 532 Z M 532,249"
         clip-rule="nonzero"
         id="path64" />
    </clipPath>
    <clipPath
       id="ea79f2921f">
      <path
         d="M 490,255.32812 H 534 V 298.62109 H 490 Z M 490,255.32812"
         clip-rule="nonzero"
         id="path70" />
    </clipPath>
    <clipPath
       id="c30327fbb8">
      <path
         d="M 456.31641,249 H 493 V 293 H 456.31641 Z M 456.31641,249"
         clip-rule="nonzero"
         id="path67" />
    </clipPath>
    <clipPath
       id="e0395b3cbe">
      <path
         d="M 816,204.38281 H 841 V 227 H 816 Z M 816,204.38281"
         clip-rule="nonzero"
         id="path73" />
    </clipPath>
    <clipPath
       id="c2e3ede71c">
      <path
         d="M 866,218 H 872.70703 V 225 H 866 Z M 866,218"
         clip-rule="nonzero"
         id="path76" />
    </clipPath>
    <clipPath
       id="855ecf57e6">
      <path
         d="M 866,228 H 872.70703 V 235 H 866 Z M 866,228"
         clip-rule="nonzero"
         id="path79" />
    </clipPath>
    <clipPath
       id="9044096d2b">
      <path
         d="M 869,221 H 872.70703 V 232 H 869 Z M 869,221"
         clip-rule="nonzero"
         id="path82" />
    </clipPath>
    <clipPath
       id="7451575029">
      <path
         d="M 790.20703,215 H 812 V 237 H 790.20703 Z M 790.20703,215"
         clip-rule="nonzero"
         id="path85" />
    </clipPath>
    <clipPath
       id="fa53a86e5d">
      <path
         d="M 796,243 H 852 V 301.88281 H 796 Z M 796,243"
         clip-rule="nonzero"
         id="path88" />
    </clipPath>
    <clipPath
       id="f3931ed02a">
      <path
         d="M 848,243 H 861 V 301.88281 H 848 Z M 848,243"
         clip-rule="nonzero"
         id="path91" />
    </clipPath>
  </defs>
  <g
     inkscape:label="Layer 1"
     inkscape:groupmode="layer"
     id="layer1"
     transform="translate(-81.365894,-145.99943)">
    <g
       clip-path="url(#e0395b3cbe)"
       id="g931"
       transform="matrix(0.35277777,0,0,0.35277777,-197.40158,73.897717)"
       style="fill:#000000;fill-opacity:1" />
    <g
       clip-path="url(#c2e3ede71c)"
       id="g935"
       transform="matrix(0.35277777,0,0,0.35277777,-197.40158,73.897717)"
       style="fill:#000000;fill-opacity:1" />
    <g
       clip-path="url(#855ecf57e6)"
       id="g939"
       transform="matrix(0.35277777,0,0,0.35277777,-197.40158,73.897717)"
       style="fill:#000000;fill-opacity:1" />
    <g
       clip-path="url(#9044096d2b)"
       id="g943"
       transform="matrix(0.35277777,0,0,0.35277777,-197.40158,73.897717)"
       style="fill:#000000;fill-opacity:1" />
    <g
       clip-path="url(#7451575029)"
       id="g965"
       transform="matrix(0.35277777,0,0,0.35277777,-197.40158,73.897717)"
       style="fill:#000000;fill-opacity:1" />
    <g
       clip-path="url(#fa53a86e5d)"
       id="g973"
       transform="matrix(0.35277777,0,0,0.35277777,-197.40158,73.897717)"
       style="fill:#000000;fill-opacity:1" />
    <g
       clip-path="url(#f3931ed02a)"
       id="g977"
       transform="matrix(0.35277777,0,0,0.35277777,-197.40158,73.897717)"
       style="fill:#000000;fill-opacity:1" />
    <path
       id="path989"
       style="stroke-width:0.352778;fill:#ffffff;fill-opacity:1"
       d="M 99.150854,161.04761 C 98.853197,161.04761 98.612042,160.80783 98.612042,160.51017 V 158.89787 C 98.612042,158.60159 98.853197,158.36043 99.150854,158.36043 99.449889,158.36043 99.689669,158.60159 99.689669,158.89787 V 160.51017 C 99.689669,160.80783 99.449889,161.04761 99.150854,161.04761 Z M 99.150854,161.04761 M 93.761348,161.04761 C 93.463691,161.04761 93.222536,160.80783 93.222536,160.51017 V 158.89787 C 93.222536,158.60159 93.463691,158.36043 93.761348,158.36043 94.060383,158.36043 94.300159,158.60159 94.300159,158.89787 V 160.51017 C 94.300159,160.80783 94.060383,161.04761 93.761348,161.04761 Z M 93.761348,161.04761 M 99.150854,159.4353 C 98.853197,159.4353 98.612042,159.19552 98.612042,158.89787 98.612042,157.71276 97.646038,156.74813 96.456788,156.74813 95.267543,156.74813 94.300159,157.71276 94.300159,158.89787 94.300159,159.19552 94.060383,159.4353 93.761348,159.4353 93.463691,159.4353 93.222536,159.19552 93.222536,158.89787 93.222536,157.1202 94.67361,155.67326 96.456788,155.67326 98.239971,155.67326 99.689669,157.1202 99.689669,158.89787 99.689669,159.19552 99.449889,159.4353 99.150854,159.4353 Z M 99.150854,159.4353 M 95.917977,163.19735 C 95.618941,163.19735 95.379165,162.95757 95.379165,162.65991 V 158.89787 C 95.379165,158.60159 95.618941,158.36043 95.917977,158.36043 96.215633,158.36043 96.456788,158.60159 96.456788,158.89787 V 162.65991 C 96.456788,162.95757 96.215633,163.19735 95.917977,163.19735 Z M 95.917977,163.19735 M 90.528471,163.19735 C 90.230815,163.19735 89.989656,162.95757 89.989656,162.65991 V 158.89787 C 89.989656,158.60159 90.230815,158.36043 90.528471,158.36043 90.826127,158.36043 91.067283,158.60159 91.067283,158.89787 V 162.65991 C 91.067283,162.95757 90.826127,163.19735 90.528471,163.19735 Z M 90.528471,163.19735 M 95.917977,159.4353 C 95.618941,159.4353 95.379165,159.19552 95.379165,158.89787 95.379165,157.71276 94.411782,156.74813 93.222536,156.74813 92.034666,156.74813 91.067283,157.71276 91.067283,158.89787 91.067283,159.19552 90.826127,159.4353 90.528471,159.4353 90.230815,159.4353 89.989656,159.19552 89.989656,158.89787 89.989656,157.1202 91.439354,155.67326 93.222536,155.67326 95.005715,155.67326 96.456788,157.1202 96.456788,158.89787 96.456788,159.19552 96.215633,159.4353 95.917977,159.4353 Z M 95.917977,159.4353 M 105.61799,180.39526 H 102.38511 C 102.08745,180.39526 101.8463,180.15548 101.8463,179.85783 V 160.51017 C 101.8463,160.21389 102.08745,159.97274 102.38511,159.97274 H 105.61799 C 105.91702,159.97274 106.15818,160.21389 106.15818,160.51017 V 179.85783 C 106.15818,180.15548 105.91702,180.39526 105.61799,180.39526 Z M 102.92392,179.32039 H 105.07917 V 161.04761 H 102.92392 Z M 102.92392,179.32039 M 102.38511,180.39526 H 84.061338 C 83.762303,180.39526 83.522523,180.15548 83.522523,179.85783 V 160.51017 C 83.522523,160.21389 83.762303,159.97274 84.061338,159.97274 H 102.38511 C 102.68277,159.97274 102.92392,160.21389 102.92392,160.51017 V 179.85783 C 102.92392,180.15548 102.68277,180.39526 102.38511,180.39526 Z M 84.60015,179.32039 H 101.8463 V 161.04761 H 84.60015 Z M 84.60015,179.32039 M 86.216588,154.06095 H 84.061338 C 83.762303,154.06095 83.522523,153.82118 83.522523,153.52352 83.522523,153.22724 83.762303,152.98608 84.061338,152.98608 H 86.216588 C 86.514244,152.98608 86.7554,153.22724 86.7554,153.52352 86.7554,153.82118 86.514244,154.06095 86.216588,154.06095 Z M 86.216588,154.06095 M 85.138961,155.13582 C 84.841305,155.13582 84.60015,154.89604 84.60015,154.59839 V 152.44865 C 84.60015,152.15237 84.841305,151.91121 85.138961,151.91121 85.436618,151.91121 85.677777,152.15237 85.677777,152.44865 V 154.59839 C 85.677777,154.89604 85.436618,155.13582 85.138961,155.13582 Z M 85.138961,155.13582 M 85.138961,157.28556 C 83.059502,157.28556 81.365894,155.59884 81.365894,153.52352 81.365894,151.44957 83.059502,149.76147 85.138961,149.76147 87.218421,149.76147 88.912033,151.44957 88.912033,153.52352 88.912033,155.59884 87.218421,157.28556 85.138961,157.28556 Z M 85.138961,150.83634 C 83.653439,150.83634 82.443521,152.04213 82.443521,153.52352 82.443521,155.00629 83.653439,156.21069 85.138961,156.21069 86.624488,156.21069 87.833027,155.00629 87.833027,153.52352 87.833027,152.04213 86.624488,150.83634 85.138961,150.83634 Z M 85.138961,150.83634 M 104.00155,156.74813 H 101.8463 C 101.54864,156.74813 101.30748,156.50835 101.30748,156.21069 V 150.83634 C 101.30748,150.54007 101.54864,150.29891 101.8463,150.29891 H 104.00155 C 104.2992,150.29891 104.54036,150.54007 104.54036,150.83634 V 156.21069 C 104.54036,156.50835 104.2992,156.74813 104.00155,156.74813 Z M 102.38511,155.67326 H 103.46274 V 151.37378 H 102.38511 Z M 102.38511,155.67326 M 105.07917,156.21069 H 104.00155 C 103.70389,156.21069 103.46274,155.97091 103.46274,155.67326 103.46274,155.37698 103.70389,155.13582 104.00155,155.13582 H 105.07917 C 105.37821,155.13582 105.61799,155.37698 105.61799,155.67326 105.61799,155.97091 105.37821,156.21069 105.07917,156.21069 Z M 105.07917,156.21069 M 105.61799,151.91121 H 104.00155 C 103.70389,151.91121 103.46274,151.67144 103.46274,151.37378 103.46274,151.0775 103.70389,150.83634 104.00155,150.83634 H 105.61799 C 105.91702,150.83634 106.15818,151.0775 106.15818,151.37378 106.15818,151.67144 105.91702,151.91121 105.61799,151.91121 Z M 105.61799,151.91121 M 105.61799,156.74813 C 105.48018,156.74813 105.34238,156.69576 105.23765,156.59103 L 104.69884,156.0536 C 104.488,155.84413 104.488,155.50376 104.69884,155.2943 104.90968,155.08346 105.25005,155.08346 105.46089,155.2943 L 105.99971,155.83173 C 106.21054,156.0412 106.21054,156.38157 105.99971,156.59103 105.89497,156.69576 105.75717,156.74813 105.61799,156.74813 Z M 105.61799,156.74813 M 106.15818,150.03019 C 106.10857,150.03019 106.05896,150.0233 106.00935,150.00952 105.72272,149.92822 105.55735,149.63056 105.64003,149.34531 105.73374,149.01871 105.98317,148.14917 106.96571,148.14917 107.70985,148.14917 108.31343,148.75275 108.31343,149.49276 108.31343,149.79041 108.07228,150.03019 107.77462,150.03019 107.47696,150.03019 107.2358,149.79041 107.2358,149.49276 107.2358,149.34531 107.11454,149.22404 106.96571,149.22404 106.86649,149.22404 106.79621,149.22404 106.67494,149.64158 106.60742,149.87723 106.39245,150.03019 106.15818,150.03019 Z M 106.15818,150.03019 M 105.61937,151.91121 C 105.56976,151.91121 105.52015,151.90432 105.47054,151.89054 105.18528,151.80924 105.01854,151.51158 105.09984,151.22633 L 105.63866,149.34531 C 105.72134,149.06005 106.02175,148.89607 106.30563,148.97599 106.59088,149.0573 106.75762,149.35495 106.67632,149.6402 L 106.13751,151.52123 C 106.06861,151.75825 105.85363,151.91121 105.61937,151.91121 Z M 105.61937,151.91121 M 107.77462,151.91121 C 107.47696,151.91121 107.2358,151.67144 107.2358,151.37378 V 149.49276 C 107.2358,149.19648 107.47696,148.95532 107.77462,148.95532 108.07228,148.95532 108.31343,149.19648 108.31343,149.49276 V 151.37378 C 108.31343,151.67144 108.07228,151.91121 107.77462,151.91121 Z M 107.77462,151.91121 M 108.85224,156.74813 H 105.61799 C 105.32033,156.74813 105.07917,156.50835 105.07917,156.21069 105.07917,155.91441 105.32033,155.67326 105.61799,155.67326 H 108.85224 C 109.1499,155.67326 109.39106,155.91441 109.39106,156.21069 109.39106,156.50835 109.1499,156.74813 108.85224,156.74813 Z M 108.85224,156.74813 M 108.85224,151.91121 H 107.77462 C 107.47696,151.91121 107.2358,151.67144 107.2358,151.37378 107.2358,151.0775 107.47696,150.83634 107.77462,150.83634 H 108.85224 C 109.1499,150.83634 109.39106,151.0775 109.39106,151.37378 109.39106,151.67144 109.1499,151.91121 108.85224,151.91121 Z M 108.85224,151.91121 M 109.92987,155.67326 C 109.63221,155.67326 109.39106,155.43348 109.39106,155.13582 V 152.44865 C 109.39106,152.15237 109.63221,151.91121 109.92987,151.91121 110.2289,151.91121 110.46868,152.15237 110.46868,152.44865 V 155.13582 C 110.46868,155.43348 110.2289,155.67326 109.92987,155.67326 Z M 109.92987,155.67326 M 108.85224,156.74813 C 108.55459,156.74813 108.31343,156.50835 108.31343,156.21069 108.31343,155.91441 108.55459,155.67326 108.85224,155.67326 109.1499,155.67326 109.39106,155.4321 109.39106,155.13582 109.39106,154.83955 109.63221,154.59839 109.92987,154.59839 110.2289,154.59839 110.46868,154.83955 110.46868,155.13582 110.46868,156.02466 109.74384,156.74813 108.85224,156.74813 Z M 108.85224,156.74813 M 109.92987,152.98608 C 109.63221,152.98608 109.39106,152.7463 109.39106,152.44865 109.39106,152.15237 109.1499,151.91121 108.85224,151.91121 108.55459,151.91121 108.31343,151.67144 108.31343,151.37378 108.31343,151.0775 108.55459,150.83634 108.85224,150.83634 109.74384,150.83634 110.46868,151.55981 110.46868,152.44865 110.46868,152.7463 110.2289,152.98608 109.92987,152.98608 Z M 109.92987,152.98608 M 94.84035,153.79637 C 94.697034,153.79637 94.559232,153.73987 94.458634,153.6379 L 91.301548,150.49046 C 90.804079,149.99574 90.528471,149.33428 90.528471,148.6301 90.528471,147.92731 90.804079,147.26585 91.302928,146.76975 91.796266,146.27366 92.4591,145.99943 93.166035,145.99943 93.783396,145.99943 94.369064,146.20889 94.84035,146.59337 95.31164,146.20889 95.897308,145.99943 96.513289,145.99943 97.220224,145.99943 97.883058,146.27366 98.379152,146.77113 98.876625,147.26585 99.152233,147.92593 99.152233,148.6301 99.152233,149.33428 98.876625,149.99574 98.377776,150.49184 L 98.187604,150.67787 95.22069,153.63927 C 95.120092,153.73849 94.983666,153.79637 94.84035,153.79637 Z M 93.166035,147.0743 C 92.748491,147.0743 92.357126,147.23553 92.064984,147.52905 91.768704,147.82395 91.606094,148.21394 91.606094,148.6301 91.606094,149.04627 91.768704,149.43626 92.063605,149.72978 L 94.84035,152.49826 97.619854,149.72702 C 97.910621,149.43626 98.074606,149.04627 98.074606,148.6301 98.074606,148.21394 97.910621,147.82395 97.617099,147.53043 97.027297,146.94063 95.997902,146.94201 95.405348,147.53043 L 95.219311,147.71371 C 95.008473,147.92317 94.669475,147.92317 94.458634,147.71371 L 94.273976,147.53181 C 93.977699,147.23691 93.584959,147.0743 93.166035,147.0743 Z M 93.166035,147.0743" />
  </g>
</svg>
