<?xml version="1.0" encoding="UTF-8" standalone="no"?>
<!-- Created with Inkscape (http://www.inkscape.org/) -->

<svg
   width="39.422916mm"
   height="28.784462mm"
   viewBox="0 0 39.422917 28.784462"
   version="1.1"
   id="svg3337"
   inkscape:version="1.1 (c68e22c387, 2021-05-23)"
   sodipodi:docname="graphic-familiar-02.svg"
   xmlns:inkscape="http://www.inkscape.org/namespaces/inkscape"
   xmlns:sodipodi="http://sodipodi.sourceforge.net/DTD/sodipodi-0.dtd"
   xmlns="http://www.w3.org/2000/svg"
   xmlns:svg="http://www.w3.org/2000/svg">
  <sodipodi:namedview
     id="namedview3339"
     pagecolor="#ffffff"
     bordercolor="#666666"
     borderopacity="1.0"
     inkscape:pageshadow="2"
     inkscape:pageopacity="0.0"
     inkscape:pagecheckerboard="0"
     inkscape:document-units="mm"
     showgrid="false"
     inkscape:zoom="2.6832492"
     inkscape:cx="92.052577"
     inkscape:cy="62.424319"
     inkscape:window-width="1920"
     inkscape:window-height="1017"
     inkscape:window-x="-8"
     inkscape:window-y="-8"
     inkscape:window-maximized="1"
     inkscape:current-layer="layer1" />
  <defs
     id="defs3334">
    <clipPath
       id="b491992e3a">
      <path
         d="M 144.58984,209 H 240.58984 V 306 H 144.58984 Z M 144.58984,209"
         clip-rule="nonzero"
         id="path61" />
    </clipPath>
    <clipPath
       id="47c79712f2">
      <path
         d="M 532,249 H 568.06641 V 293 H 532 Z M 532,249"
         clip-rule="nonzero"
         id="path64" />
    </clipPath>
    <clipPath
       id="ea79f2921f">
      <path
         d="M 490,255.32812 H 534 V 298.62109 H 490 Z M 490,255.32812"
         clip-rule="nonzero"
         id="path70" />
    </clipPath>
    <clipPath
       id="c30327fbb8">
      <path
         d="M 456.31641,249 H 493 V 293 H 456.31641 Z M 456.31641,249"
         clip-rule="nonzero"
         id="path67" />
    </clipPath>
  </defs>
  <g
     inkscape:label="Layer 1"
     inkscape:groupmode="layer"
     id="layer1"
     transform="translate(-26.498956,-138.34874)">
    <path
       id="path911"
       style="fill:#ffffff;fill-opacity:1;stroke-width:1.33333"
       d="M 28.703125 0 C 18.765617 0 10.6875 8.1243312 10.6875 18.119141 C 10.6875 28.108697 18.765617 36.25 28.703125 36.25 C 38.635417 36.25 46.734375 28.108697 46.734375 18.119141 C 46.734375 8.1243312 38.635417 0 28.703125 0 z M 120.29102 0 C 110.35872 0 102.25977 8.1243312 102.25977 18.119141 C 102.25977 28.108697 110.35872 36.25 120.29102 36.25 C 130.22851 36.25 138.30664 28.108697 138.30664 18.119141 C 138.30664 8.1243312 130.22851 0 120.29102 0 z M 28.703125 4.8027344 C 36.015615 4.8027344 41.943359 10.775367 41.943359 18.119141 C 41.943359 25.45766 36.015615 31.431641 28.703125 31.431641 C 21.401044 31.431641 15.474609 25.45766 15.474609 18.119141 C 15.474609 10.775367 21.401044 4.8027344 28.703125 4.8027344 z M 120.29102 4.8027344 C 127.5931 4.8027344 133.52148 10.775367 133.52148 18.119141 C 133.52148 25.45766 127.5931 31.431641 120.29102 31.431641 C 112.97851 31.431641 107.05273 25.45766 107.05273 18.119141 C 107.05273 10.775367 112.97851 4.8027344 120.29102 4.8027344 z M 74.5 8.1933594 C 64.562496 8.1933594 56.46875 16.322906 56.46875 26.3125 C 56.46875 36.302094 64.562496 44.443359 74.5 44.443359 C 84.432281 44.443359 92.525391 36.302094 92.525391 26.3125 C 92.525391 16.322906 84.432281 8.1933594 74.5 8.1933594 z M 74.5 13.009766 C 81.796869 13.009766 87.740234 18.968765 87.740234 26.3125 C 87.740234 33.666667 81.796869 39.630859 74.5 39.630859 C 67.197907 39.630859 61.255859 33.666667 61.255859 26.3125 C 61.255859 18.968765 67.197907 13.009766 74.5 13.009766 z M 28.703125 42.927734 C 12.880205 42.927734 0 55.869167 0 71.806641 L 0 98.171875 C 0 99.505217 1.0677185 100.58398 2.390625 100.58398 C 3.7135466 100.58398 4.7871094 99.505217 4.7871094 98.171875 L 4.7871094 71.806641 C 4.7871094 58.530597 15.515616 47.744141 28.703125 47.744141 C 34.244789 47.744141 39.442063 49.593113 43.728516 53.087891 C 44.759771 53.942064 46.270186 53.780585 47.087891 52.728516 C 47.921224 51.707665 47.764965 50.176432 46.744141 49.353516 C 41.650392 45.212892 35.265617 42.927734 28.703125 42.927734 z M 120.29102 42.953125 C 113.72851 42.953125 107.34374 45.229827 102.25 49.365234 C 101.22916 50.20376 101.07292 51.718112 101.90625 52.744141 C 102.72395 53.7806 104.2448 53.952473 105.26562 53.103516 C 109.55209 49.603522 114.74935 47.755859 120.29102 47.755859 C 133.47851 47.755859 144.20898 58.556615 144.20898 71.822266 L 144.20898 98.171875 C 144.20898 99.505217 145.28059 100.58398 146.60352 100.58398 C 147.92644 100.58398 149 99.505217 149 98.171875 L 149 71.806641 C 149 55.895208 136.11392 42.953125 120.29102 42.953125 z M 74.5 51.146484 C 58.677083 51.146484 45.791016 64.09376 45.791016 80.015625 L 45.791016 106.38086 C 45.791016 107.7142 46.864582 108.79102 48.171875 108.79102 C 49.510421 108.79102 50.568359 107.7142 50.568359 106.38086 L 50.568359 80.015625 C 50.568359 66.750012 61.307283 55.953125 74.5 55.953125 C 87.687494 55.953125 98.427734 66.750012 98.427734 80.015625 L 98.427734 106.38086 C 98.427734 107.7142 99.499359 108.79102 100.82227 108.79102 C 102.12956 108.79102 103.20312 107.7142 103.20312 106.38086 L 103.20312 80.015625 C 103.20312 64.09376 90.317708 51.146484 74.5 51.146484 z "
       transform="matrix(0.26458333,0,0,0.26458333,26.498956,138.34874)" />
  </g>
</svg>
