<?xml version="1.0" encoding="UTF-8" standalone="no"?>
<!-- Created with Inkscape (http://www.inkscape.org/) -->

<svg
   width="19.81362mm"
   height="13.713424mm"
   viewBox="0 0 19.81362 13.713424"
   version="1.1"
   id="svg14593"
   inkscape:version="1.1 (c68e22c387, 2021-05-23)"
   sodipodi:docname="logoPart-01.svg"
   xmlns:inkscape="http://www.inkscape.org/namespaces/inkscape"
   xmlns:sodipodi="http://sodipodi.sourceforge.net/DTD/sodipodi-0.dtd"
   xmlns="http://www.w3.org/2000/svg"
   xmlns:svg="http://www.w3.org/2000/svg">
  <sodipodi:namedview
     id="namedview14595"
     pagecolor="#ffffff"
     bordercolor="#666666"
     borderopacity="1.0"
     inkscape:pageshadow="2"
     inkscape:pageopacity="0.0"
     inkscape:pagecheckerboard="0"
     inkscape:document-units="mm"
     showgrid="false"
     inkscape:zoom="2.6832492"
     inkscape:cx="35.404837"
     inkscape:cy="21.801926"
     inkscape:window-width="1920"
     inkscape:window-height="1017"
     inkscape:window-x="-8"
     inkscape:window-y="-8"
     inkscape:window-maximized="1"
     inkscape:current-layer="layer1" />
  <defs
     id="defs14590" />
  <g
     inkscape:label="Layer 1"
     inkscape:groupmode="layer"
     id="layer1"
     transform="translate(-95.79837,-165.11141)">
    <g
       id="g14673">
      <path
         style="font-variation-settings:'wght' 700;fill:#194666;fill-opacity:1;stroke:none;stroke-width:2.64583"
         d="M 96.000712,171.41584 102.13648,165.28007 C 102.34771,165.06884 102.85708,165.04195 103.0952,165.28007 L 104.9429,167.12777 C 105.11417,167.29904 105.10455,167.4542 104.9429,167.61584 L 101.85758,170.70116 C 101.51826,171.04048 101.51714,171.77264 101.85758,172.11308 L 103.2085,173.464 C 103.55974,173.81524 104.38006,173.93969 104.85574,173.464 L 107.84083,170.47891 C 108.06305,170.25669 108.24986,170.29329 108.38001,170.42345 L 109.56315,171.60659 C 109.79828,171.84171 109.68953,172.05326 109.50769,172.2351 L 103.05053,178.69226 C 102.87202,178.87077 102.31149,178.86727 102.13648,178.69226 L 95.988183,172.54396 C 95.746872,172.30265 95.719259,171.69729 96.000712,171.41584 Z"
         id="path20810"
         sodipodi:nodetypes="ccccccccccccccccc" />
      <path
         style="font-variation-settings:'wght' 700;fill:#98d4c5;fill-opacity:1;stroke:none;stroke-width:2.64583"
         d="M 115.40965,172.59056 109.36742,178.65618 C 109.15619,178.86741 108.64683,178.8943 108.40871,178.65618 L 106.561,176.80847 C 106.38974,176.63721 106.39936,176.48205 106.561,176.3204 L 110.18282,172.6752 C 110.52215,172.33587 110.52327,171.60371 110.18282,171.26327 L 108.83191,169.91236 C 108.48067,169.56112 107.66035,169.43667 107.18466,169.91236 L 104.24635,172.85067 C 104.02413,173.07289 103.83732,173.0363 103.70716,172.90614 L 102.52402,171.723 C 102.2889,171.48787 102.39765,171.27633 102.57949,171.09448 L 108.35983,165.31414 C 108.53834,165.13563 109.09887,165.13914 109.27387,165.31414 L 115.42218,171.46244 C 115.66349,171.70375 115.6911,172.30911 115.40965,172.59056 Z"
         id="path3890"
         sodipodi:nodetypes="ccccccccccccccccc" />
    </g>
  </g>
</svg>
